<svg xmlns="http://www.w3.org/2000/svg" version="1.1" width="1200pt" height="1200pt" viewBox="0 0 1200 1200"><path d="m843.75 628.96v-47.715c0-2.0273-0.78125-3.8008-1.8711-5.3359 15.82-19.129 77.762-102.33 77.762-233.13 0-181.19-201.35-237.47-274.69-237.47s-274.69 56.277-274.69 237.47c0 138.17 70.492 224.75 80.227 236.05-0.21484 0.79297-0.48828 1.5625-0.48828 2.418v51.258c-127.92 23.551-221.88 140.73-211.43 275.54l14.031 180.97c0.75391 9.7266 8.8672 17.234 18.621 17.234h555.92c102.37 0 185.36-83.086 185.36-185.58v-106.97c0-96.879-74.172-176.32-168.75-184.74zm150 213.43v78.273c0 91.988-74.738 166.83-166.61 166.83l-274.02 0.03125v-130.35c0-5.6836 4.6289-10.309 10.312-10.309h217.28c11.453 0 21.758-7.3594 26.25-18.742 7.332-18.602 40.777-17.168 41.234-17.129 5.082 0.23828 9.6055-3.5898 9.9375-8.7617 0.32812-5.1641-3.5898-9.6211-8.7578-9.9531-1.8984-0.11719-47.383-2.6719-59.855 28.957-1.3086 3.3281-4.3125 6.8789-8.8086 6.8789h-217.28c-16.023 0-29.062 13.039-29.062 29.059v5.7422l-65.57 11.629c-37.805 6.7031-70.387 28.406-91.254 58.973l-10.848-84.855c-4.5977-37.758-4.793-74.332-0.58594-108.72 13.348-109.09 55.922-128.26 56.973-128.7 4.7734-1.832 7.2188-7.1602 5.4609-11.977-1.7773-4.8516-7.1602-7.3594-12.02-5.5938-2.1953 0.80469-53.98 21.047-69.027 144-4.3906 35.891-4.1914 73.992 0.59375 113.32l14.285 111.73c-2.1367 5.625-3.9883 11.395-5.4062 17.355-0.60547 2.5508-0.59375 5.0469-0.29687 7.4727l-85.383 0.011719-14.031-180.97c-5.2578-67.805 17.273-132.62 63.441-182.51 46.078-49.797 108.79-77.219 176.58-77.219h329.86c56.914 0 107.21 28.762 137.27 72.496-20.992 10.816-35.367 32.672-35.367 57.91 0.003907 35.824 28.93 64.875 64.699 65.117zm-618.06 244.15c-0.5-0.62891-0.65625-1.3477-0.47266-2.1289 1.5859-6.668 3.7656-13.078 6.375-19.25 15.836-37.41 49.586-64.902 90.484-72.156l62.297-11.047v105.53h-156.72c-0.80469 0-1.4648-0.32031-1.9609-0.94922zm140.72-870.83c43.148-8.6406 86.941-12.961 130.73-12.961 45.418 0 90.828 4.6484 135.52 13.941 65.367 13.594 112.22 71.195 112.22 137.96v1.5898c0 68.887-49.809 127.68-117.76 139-42.996 7.1602-86.438 10.742-129.88 10.742-41.871 0-83.742-3.3281-125.22-9.9805l-8.4219-1.3516c-68.332-10.961-118.59-69.926-118.59-139.13 0-67.156 47.391-124.98 113.24-138.17zm-47.66 412.41v-37.5h356.25v37.5z"></path><path d="m609.38 993.75c0 10.355-8.3945 18.75-18.75 18.75s-18.75-8.3945-18.75-18.75 8.3945-18.75 18.75-18.75 18.75 8.3945 18.75 18.75z"></path><path d="m525 703.12c0 10.355-8.3945 18.75-18.75 18.75s-18.75-8.3945-18.75-18.75 8.3945-18.75 18.75-18.75 18.75 8.3945 18.75 18.75z"></path><path d="m525 787.5c0 10.355-8.3945 18.75-18.75 18.75s-18.75-8.3945-18.75-18.75 8.3945-18.75 18.75-18.75 18.75 8.3945 18.75 18.75z"></path><path d="m525 871.88c0 10.355-8.3945 18.75-18.75 18.75s-18.75-8.3945-18.75-18.75 8.3945-18.75 18.75-18.75 18.75 8.3945 18.75 18.75z"></path><path d="m609.38 1050c0 10.355-8.3945 18.75-18.75 18.75s-18.75-8.3945-18.75-18.75 8.3945-18.75 18.75-18.75 18.75 8.3945 18.75 18.75z"></path><path d="m288.75 576.67c17.184-14.422 26.848-29.801 21.285-43.422-3.5234-8.6328-14.395-18.156-45.008-15.988-14.098-13.656-33.262-22.105-54.391-22.105-42.164 0-76.555 33.535-78.133 75.32-25.434 20.754-26.605 35.715-22.945 44.66 3.1523 7.7188 12.117 16.406 36.477 16.406 2.6094 0 5.3906-0.10156 8.3594-0.3125 1.0117-0.070312 2.1602-0.30078 3.1914-0.39844 13.965 12.918 32.574 20.887 53.055 20.887 42.066 0.003906 76.398-33.391 78.109-75.047zm3.9258-36.332c0.89844 2.2031-1.2188 6.8359-6.5195 12.828-1.6328-6.0742-3.9062-11.887-6.8711-17.285 8.6797 0.73438 12.785 2.9805 13.391 4.457zm-82.043-26.434c30.855 0 56.297 23.609 59.234 53.715-12.008 8.8945-28.887 18.754-51.344 27.93-18.984 7.75-37.629 13.027-53.957 15.531-8.4023-10.266-13.461-23.371-13.461-37.641-0.003906-32.828 26.703-59.535 59.527-59.535zm-83.719 94.145c-0.67578-1.6602 0.98828-6.8398 8.1562-14.496 1.8086 6.7812 4.4844 13.199 7.9414 19.133-11.406-0.45703-15.578-3.3672-16.098-4.6367zm83.719 24.922c-9.7422 0-18.918-2.3984-27.043-6.5625 13.461-3.1797 27.676-7.6367 42.016-13.496 14.484-5.9141 28.82-13.07 41.543-20.891-7.8242 23.742-30.184 40.949-56.516 40.949z"></path><path d="m232.41 190.75c9.7891 5.6719 17.953 13.836 23.625 23.625 3.9648 6.8359 13.418 6.8359 17.379 0 5.6758-9.7891 13.84-17.953 23.625-23.625 6.8359-3.9648 6.8359-13.418 0-17.379-9.7891-5.6719-17.953-13.836-23.625-23.625-3.9648-6.8359-13.418-6.8359-17.379 0-5.6719 9.7891-13.836 17.953-23.625 23.625-6.8398 3.9609-6.8398 13.414 0 17.379z"></path><path d="m1047.8 564.11c-9.7891-5.6758-17.953-13.84-23.625-23.625-3.9648-6.8359-13.418-6.8359-17.379 0-5.6719 9.7891-13.836 17.953-23.625 23.625-6.8359 3.9648-6.8359 13.418 0 17.379 9.7891 5.6758 17.953 13.84 23.625 23.625 3.9648 6.8359 13.418 6.8359 17.379 0 5.6758-9.7852 13.84-17.953 23.625-23.625 6.8398-3.9648 6.8398-13.418 0-17.379z"></path><path d="m721.09 675h-139.05c-10.789 0-19.535 8.7461-19.535 19.535v82.805c0 10.789 8.7461 19.535 19.535 19.535h139.05c10.789 0 19.535-8.7461 19.535-19.535v-82.805c0-10.789-8.7461-19.535-19.535-19.535zm0.78516 102.34c0 0.43359-0.35156 0.78516-0.78516 0.78516h-139.05c-0.43359 0-0.78516-0.35156-0.78516-0.78516v-82.805c0-0.43359 0.35156-0.78516 0.78516-0.78516h139.05c0.43359 0 0.78516 0.35156 0.78516 0.78516z"></path><path d="m536.29 478.72c3.5391 0.56641 7.0938 0.97266 10.637 1.4844 6.582 0.95312 13.164 1.8945 19.766 2.6602 0.050781 0.003906 0.097656 0.015624 0.14844 0.019531-0.003907 0-0.007813-0.003907-0.007813-0.007813-41.965-26.617-69.953-73.363-69.953-126.63 0-14.852 2.2461-29.18 6.2852-42.738 69.328-2.0898 110.16-27.113 133.75-52.293 21.801 14.797 64.074 30.367 145.33 30.828 9.2852 19.496 14.641 41.211 14.641 64.203 0 53.238-27.961 99.965-69.887 126.59 6.6133-0.76172 13.211-1.6562 19.805-2.6094 5-0.72266 10.008-1.3555 14.996-2.1875 0.74609-0.125 1.4609-0.33203 2.207-0.46875 31.781-30.688 51.629-73.656 51.629-121.33 0-49.422-21.426-93.691-55.285-124.55-0.44141-0.40234-0.82812-0.85938-1.2734-1.2578-6.4648-1.2578-12.934-2.4961-19.426-3.5312-4.75-0.75781-9.5234-1.3281-14.285-1.9688-2.6797-0.35938-5.3633-0.72266-8.0469-1.0469-17.855-2.1523-35.773-3.457-53.719-3.9688-12.035-0.33984-24.074-0.35547-36.109 0.042969-17.074 0.5625-34.117 1.9102-51.109 3.9609-0.97656 0.11719-1.9531 0.23437-2.9297 0.35937-6.5 0.81641-12.992 1.6914-19.469 2.7266-6.4102 1.0234-12.812 2.1055-19.195 3.3438-0.50781 0.45312-0.94922 0.97266-1.4492 1.4336-33.812 30.855-55.203 75.082-55.203 124.46 0 47.734 19.902 90.75 51.762 121.45z"></path></svg>